<?xml version="1.0" standalone="no"?>
<!DOCTYPE svg PUBLIC "-//W3C//DTD SVG 20010904//EN"
 "http://www.w3.org/TR/2001/REC-SVG-20010904/DTD/svg10.dtd">
<svg version="1.0" xmlns="http://www.w3.org/2000/svg"
 width="505.000000pt" height="505.000000pt" viewBox="0 0 505.000000 505.000000"
 preserveAspectRatio="xMidYMid meet">
<metadata>
Created by potrace 1.14, written by Peter Selinger 2001-2017
</metadata>
<g transform="translate(0.000000,505.000000) scale(0.100000,-0.100000)"
fill="#000000" stroke="none">
<path d="M2829 4695 c-239 -39 -479 -139 -653 -273 -243 -187 -428 -496 -430
-717 -1 -132 86 -265 213 -328 60 -29 74 -32 161 -32 77 0 104 4 143 22 75 35
153 123 224 254 132 245 283 407 424 456 168 57 456 22 605 -75 202 -132 295
-352 239 -567 -47 -179 -122 -247 -605 -555 -189 -120 -354 -244 -420 -317
-165 -180 -264 -419 -265 -643 0 -89 4 -113 23 -155 58 -126 178 -195 337
-195 67 0 90 4 132 26 93 46 123 91 228 341 70 166 149 248 390 403 258 167
523 345 582 392 34 27 92 81 129 121 125 135 187 247 229 412 94 371 -19 746
-310 1024 -213 203 -472 328 -815 391 -149 28 -435 36 -561 15z"/>
<path d="M1379 2798 c-366 -33 -653 -302 -654 -614 0 -69 3 -85 25 -116 13
-20 42 -48 65 -63 34 -23 48 -26 100 -23 106 6 147 53 180 203 19 90 65 198
98 233 52 56 198 101 282 87 131 -21 220 -108 232 -230 8 -76 -31 -152 -148
-290 -125 -148 -193 -244 -220 -313 -19 -47 -23 -76 -23 -172 -1 -100 2 -120
21 -157 26 -48 53 -69 107 -84 75 -20 172 23 196 87 5 12 13 64 19 115 14 124
35 163 181 339 199 238 239 311 247 450 16 243 -154 458 -417 529 -85 23 -181
29 -291 19z"/>
<path d="M2409 1227 c-19 -12 -41 -38 -50 -57 -9 -19 -36 -155 -60 -302 -64
-397 -78 -377 314 -443 147 -25 281 -45 299 -45 42 0 93 31 117 70 24 40 105
535 98 598 -5 48 -40 93 -86 111 -34 14 -511 91 -560 91 -23 0 -52 -9 -72 -23z"/>
<path d="M1563 1090 c-133 -20 -160 -30 -172 -63 -11 -29 25 -284 44 -314 19
-28 61 -30 213 -8 169 24 169 24 142 217 -18 128 -22 145 -45 166 -30 26 -24
26 -182 2z"/>
</g>
</svg>
